<?xml version="1.0" encoding="iso-8859-1"?>
<!-- Generator: Adobe Illustrator 21.1.0, SVG Export Plug-In . SVG Version: 6.00 Build 0)  -->
<svg version="1.1" id="Calque_1" 
	xmlns="http://www.w3.org/2000/svg" 
	xmlns:xlink="http://www.w3.org/1999/xlink" x="0px" y="0px" width="75px" height="50px" viewBox="0 0 432 432" enable-background="new 0 0 432 432" xml:space="preserve">

	<g>
		<g>
			<path fill="#C1A07F" d="M106.194,141.815c2.467,0.095,4.935,0.182,7.402,0.293c0.397,0.018,0.807,0.095,1.179,0.233
			c0.889,0.331,1.139,1.182,0.582,1.956c-1.506,2.092-3.021,4.178-4.549,6.253c-0.205,0.278-0.283,0.516-0.248,0.873
			c0.419,4.302,0.812,8.606,1.211,12.91c0.407,4.385,0.848,8.767,1.211,13.155c0.488,5.915,0.925,11.834,1.364,17.753
			c0.316,4.259,0.595,8.521,0.898,12.78c0.286,4.019,0.542,8.04,0.887,12.054c0.386,4.494,0.732,8.995,1.546,13.44
			c0.053,0.29,0.093,0.587,0.091,0.88c-0.005,0.875-0.701,1.556-1.566,1.467c-0.642-0.066-1.287-0.255-1.728-0.77
			c-2.094-2.448-4.506-4.614-6.389-7.249c-1.405-1.967-2.846-3.908-4.244-5.88c-0.766-1.081-1.382-2.25-1.577-3.582
			c-0.14-0.956-0.222-1.921-0.303-2.884c-0.448-5.3-0.872-10.6-1.036-15.919c-0.238-7.679-0.513-15.358-0.748-23.037
			c-0.101-3.303-0.082-6.61-0.224-9.91c-0.189-4.4-0.468-8.797-0.737-13.194c-0.176-2.868-0.407-5.733-0.601-8.601
			c-0.027-0.4-0.015-0.808,0.033-1.206c0.132-1.094,0.707-1.615,1.819-1.642c1.316-0.032,2.632-0.037,3.949-0.049
			c0.591-0.006,1.182-0.001,1.773-0.001C106.191,141.898,106.192,141.857,106.194,141.815z"/>
			<path fill="#AA8D72" d="M114.758,144.388c-1.045-0.226-1.945-0.461-2.858-0.61c-2.469-0.402-4.96-0.569-7.459-0.605
			c-0.508-0.007-1.022,0.009-1.524,0.077c-1.176,0.159-2.349,0.172-3.526,0.044c-0.351-0.038-0.616-0.174-0.741-0.519
			c-0.129-0.355,0.018-0.624,0.277-0.855c0.02-0.018,0.05-0.028,0.063-0.049c0.732-1.172,1.951-1.158,3.116-1.301
			c0.582-0.071,1.168-0.167,1.732-0.326c5.604-1.574,11.241-3.017,16.904-4.37c2.709-0.647,5.373-1.502,8.03-2.348
			c11.285-3.595,22.748-6.5,34.334-8.933c2.756-0.579,5.521-1.117,8.284-1.664c0.313-0.062,0.641-0.097,0.958-0.079
			c1.228,0.071,1.959,1.004,1.915,2.225c-0.053,1.471,0.005,2.945,0.005,4.418c0,0.293,0.17,0.439,0.39,0.554
			c0.546,0.287,1.095,0.569,1.647,0.845c0.673,0.335,1.357,0.647,2.023,0.994c0.556,0.29,0.939,0.73,0.927,1.397
			c-0.012,0.665-0.403,1.114-0.967,1.373c-0.706,0.323-1.427,0.631-2.17,0.85c-6.148,1.818-12.278,3.704-18.464,5.384
			c-4.035,1.096-8.15,1.901-12.236,2.805c-6.915,1.531-13.792,3.218-20.662,4.94c-4.239,1.063-8.536,1.899-12.809,2.823
			c-0.388,0.084-0.805,0.125-1.197,0.08c-0.955-0.109-1.474-1.038-1.065-1.904c0.168-0.356,0.422-0.692,0.701-0.973
			c1.211-1.219,2.444-2.416,3.671-3.619C114.241,144.859,114.438,144.685,114.758,144.388z M129.762,144.472
			c0.279-0.051,0.536-0.088,0.787-0.146c6.896-1.595,13.793-3.181,20.685-4.793c2.793-0.653,5.573-1.359,8.357-2.048
			c0.317-0.078,0.622-0.205,0.932-0.309c0.005-0.067,0.01-0.134,0.015-0.202c-0.425-0.266-0.822-0.597-1.278-0.787
			c-1.841-0.767-3.758-1.065-5.742-0.748c-3.102,0.495-6.149,1.235-9.184,2.037c-4.125,1.091-8.188,2.372-12.176,3.888
			C130.875,141.853,130.025,142.965,129.762,144.472z"/>
			<path fill="#E4C08C" d="M190.704,173.777c-0.247,9.715-0.485,18.981-0.718,28.246c-0.072,2.874-0.126,5.748-0.202,8.622
			c-0.055,2.04-0.098,4.084-0.484,6.097c-0.096,0.498-0.244,0.992-0.428,1.465c-0.44,1.129-1.254,1.848-2.453,2.112
			c-2.017,0.445-4.048,0.837-6.048,1.351c-9.328,2.397-18.641,4.853-27.973,7.236c-5.692,1.453-11.397,2.863-17.12,4.188
			c-2.558,0.593-5.178,0.917-7.765,1.39c-1.795,0.328-3.576,0.731-5.372,1.045c-1.535,0.268-3.084,0.443-4.649,0.281
			c-1.686-0.175-2.803-1.094-3.235-2.703c-0.283-1.055-0.435-2.162-0.506-3.254c-0.344-5.28-0.664-10.563-0.947-15.847
			c-0.261-4.882-0.468-9.767-0.693-14.651c-0.199-4.32-0.423-8.64-0.578-12.962c-0.164-4.537-0.22-9.078-0.399-13.614
			c-0.123-3.138-0.349-6.273-0.575-9.406c-0.205-2.838-0.442-5.675-0.723-8.506c-0.188-1.894-0.473-3.779-0.725-5.667
			c-0.102-0.767,0.065-0.988,0.873-1.09c0.132-0.017,0.264-0.042,0.394-0.073c1.509-0.371,3.024-0.717,4.524-1.12
			c8.576-2.304,17.154-4.604,25.722-6.939c9.397-2.561,18.78-5.174,28.177-7.732c3.678-1.001,7.4-1.837,11.188-2.3
			c2.104-0.257,4.22-0.426,6.348-0.257c2.157,0.171,3.391,1.239,3.629,3.373c0.17,1.518,0.208,3.053,0.249,4.583
			c0.271,10.044,0.621,20.087,0.492,30.138C190.681,169.926,190.704,172.075,190.704,173.777z M141.181,158.269
			c1.334-0.224,2.86-0.392,4.342-0.745c3.415-0.812,6.809-1.711,10.211-2.578c2.314-0.59,4.604-1.258,6.799-2.21
			c0.539-0.234,1.081-0.487,1.562-0.818c0.259-0.178,0.536-0.528,0.558-0.819c0.156-2.097-1.042-4.843-4.105-4.799
			c-0.987,0.014-1.98,0.142-2.956,0.298c-4.962,0.797-9.841,1.893-14.439,4.012c-1.107,0.51-2.171,1.093-3.029,1.951
			c-1.211,1.212-1.96,2.616-1.403,4.418c0.195,0.63,0.608,0.997,1.238,1.125C140.298,158.173,140.646,158.199,141.181,158.269z"/>
		</g>
		<g>
			<path fill="#697279" d="M156.613,272.877c0.027-1.505,0.048-3.01-0.295-4.489c-0.843-3.635-2.752-6.555-5.86-8.65
			c-4.671-3.148-9.731-3.733-15.088-2.219c-2.583,0.73-5.005,1.812-7.048,3.588c-3.851,3.346-5.611,7.563-5.151,12.673
			c0.187,2.079,0.623,4.086,1.702,5.906c0.205,0.345,0.449,0.667,0.665,1.007c0.299,0.472,0.306,0.847,0.012,1.186
			c-0.315,0.363-0.749,0.51-1.16,0.292c-0.436-0.232-0.868-0.542-1.183-0.918c-1.272-1.515-1.926-3.322-2.389-5.222
			c-1.971-8.099,1.926-15.139,7.691-18.73c3.893-2.425,8.143-3.758,12.743-3.68c6.204,0.106,11.378,2.521,15.257,7.404
			c2.247,2.829,3.401,6.14,3.475,9.77c0.033,1.635-0.062,3.273-0.135,4.909c-0.041,0.914-0.757,1.536-1.655,1.52
			c-0.845-0.015-1.531-0.643-1.571-1.527C156.581,274.758,156.614,273.817,156.613,272.877z"/>
			<path fill="#535D63" d="M172.661,277.022c0.827,0.739,1.545,1.38,2.261,2.022c0.16,0.143,0.327,0.282,0.468,0.442
			c0.73,0.835,0.483,1.969-0.558,2.354c-0.441,0.163-0.944,0.203-1.421,0.217c-3.279,0.099-6.55-0.166-9.824-0.251
			c-5.317-0.138-10.639-0.245-15.956-0.17c-3.108,0.044-6.211,0.459-9.314,0.724c-3.858,0.33-7.679,0.918-11.445,1.814
			c-4.776,1.137-9.572,2.205-14.224,3.811c-2.531,0.874-4.9,2.051-7.027,3.694c-0.297,0.23-0.597,0.463-0.922,0.648
			c-0.7,0.397-1.469,0.235-1.86-0.36c-0.352-0.536-0.234-1.22,0.379-1.711c0.902-0.721,1.828-1.413,2.772-2.079
			c0.419-0.296,0.683-0.653,0.843-1.131c0.441-1.325,0.921-2.636,1.351-3.964c0.251-0.777,0.744-1.246,1.491-1.566
			c2.455-1.054,5.031-1.694,7.615-2.314c4.338-1.04,8.735-1.741,13.16-2.295c2.77-0.347,5.524-0.811,8.292-1.174
			c2.555-0.335,5.116-0.627,7.678-0.896c2.67-0.28,5.345-0.517,8.019-0.757c2.086-0.187,4.175-0.341,6.261-0.525
			c2.781-0.246,5.561-0.512,8.342-0.76c3.88-0.346,7.766-0.696,11.663-0.487c1.843,0.099,3.677,0.426,5.506,0.711
			c0.95,0.148,1.458,0.76,1.399,1.482c-0.062,0.766-0.705,1.219-1.677,1.282c-2.759,0.178-5.519,0.363-8.274,0.593
			c-1.524,0.127-3.039,0.352-4.558,0.535C173,276.925,172.903,276.961,172.661,277.022z"/>
			<path fill="#697279" d="M183,337.669c-0.608,1.19-1.267,2.276-1.715,3.404c-0.748,1.882-1.361,3.792-2.032,5.69
			c-0.092,0.26-0.151,0.532-0.305,0.772c-0.307,0.478-0.849,0.736-1.607,0.74c-0.796,0.004-1.409-0.235-1.69-0.765
			c-0.168-0.317-0.252-0.679-0.238-1.018c0.1-2.281,0.16-4.565,0.374-6.842c0.669-7.104,1.198-14.212,0.938-21.334
			c-0.104-2.844-0.417-5.686-0.695-8.525c-0.32-3.268-0.616-6.54-1.086-9.798c-0.713-4.94-1.495-9.882-3.405-14.68
			c-0.708-1.779-1.592-3.526-2.512-5.256c-0.536-1.008-1.434-1.909-2.603-2.597c-6.046-3.555,5.493-4.747,7.994-4.952
			c2.498-0.204,5.018-0.279,7.529-0.401c0.937-0.045,1.877-0.053,2.814-0.094c1.404-0.062,2.181,0.207,2.599,1.167
			c0.478,1.096,0.886,3.668,1.084,4.805c0.589,3.382,1.21,6.767,1.534,10.165c0.301,3.158,0.206,6.334,0.343,9.501
			c0.154,3.57,0.299,7.141,0.58,10.706c0.391,4.96,1.028,9.911,1.326,14.873c0.226,3.754,0.097,7.518,0.099,11.278
			c0,0.615-0.11,1.233-0.221,1.845c-0.277,1.536-1.627,2.377-3.771,2.232c-1.184-0.08-2.345-0.349-3.511-0.547
			C184.28,337.948,183.748,337.823,183,337.669z"/>
			<path fill="#B3AEA8" d="M180.587,320.375c-0.192,5.289-0.381,10.794-0.595,16.297c-0.094,2.415-0.226,4.83-0.373,7.243
			c-0.042,0.693-0.164,1.387-0.308,2.068c-0.286,1.354-1.049,2.391-2.199,3.154c-1.021,0.676-2.142,1.117-3.324,1.397
			c-4.292,1.019-8.642,1.651-13.042,1.987c-5.125,0.391-10.255,0.37-15.386,0.315c-9.135-0.098-18.27-0.19-27.403-0.363
			c-2.194-0.042-4.387-0.348-6.57-0.613c-1.624-0.197-2.813-1.122-3.637-2.526c-1.018-1.735-1.592-3.635-2.055-5.571
			c-0.789-3.295-1.292-6.642-1.64-10.008c-0.406-3.926-0.753-7.859-1.072-11.794c-0.284-3.507-0.517-7.019-0.731-10.531
			c-0.208-3.405-0.436-6.811-0.515-10.22c-0.053-2.304,0.087-4.617,0.238-6.919c0.07-1.063,0.36-2.114,0.571-3.166
			c0.185-0.922,0.714-1.611,1.524-2.078c0.348-0.201,0.701-0.406,1.075-0.549c2.78-1.065,5.53-2.224,8.437-2.918
			c3.497-0.834,6.986-1.707,10.506-2.431c2.309-0.475,4.662-0.753,7.004-1.051c2.769-0.352,5.544-0.66,8.322-0.931
			c2.351-0.229,4.708-0.402,7.065-0.559c7.353-0.49,14.716-0.347,22.076-0.263c1.576,0.018,3.164,0.206,4.721,0.467
			c1.818,0.305,3.181,1.36,4.109,2.965c0.845,1.463,1.271,3.07,1.607,4.704c0.559,2.716,0.809,5.47,0.989,8.232
			c0.477,7.35,0.64,14.709,0.609,22.073C180.585,319.245,180.587,319.702,180.587,320.375z"/>
			<path fill="#697279" d="M123.821,291.195c-0.471-0.455-0.903-0.788-1.229-1.204c-0.758-0.966-0.648-2.121,0.223-2.983
			c0.915-0.905,2.479-1.214,3.67-0.726c1.19,0.487,1.695,1.632,1.234,2.834c-0.251,0.655-0.531,1.302-1.132,1.725
			c-0.228,0.161-0.275,0.361-0.28,0.619c-0.091,4.409,1.119,8.381,3.964,11.799c1.885,2.265,4.344,3.548,7.211,4.08
			c4.101,0.76,7.999,0.206,11.515-2.1c4.577-3.001,7.575-7.153,8.739-12.559c0.336-1.56,0.438-3.127,0.279-4.739
			c-0.192-0.063-0.368-0.118-0.542-0.178c-1.046-0.364-1.739-1.349-1.637-2.325c0.113-1.073,1.086-2.089,2.15-2.205
			c1.232-0.134,2.194,0.387,2.951,1.32c0.279,0.344,0.387,0.758,0.333,1.211c-0.025,0.209-0.041,0.428-0.009,0.635
			c0.649,4.264-0.135,8.309-2.028,12.125c-2.666,5.375-6.744,9.239-12.49,11.209c-2.805,0.962-5.685,1.045-8.596,0.676
			c-2.544-0.323-4.901-1.152-7.038-2.588c-2.854-1.917-4.633-4.661-5.942-7.753c-1.13-2.67-1.456-5.485-1.37-8.361
			C123.803,291.521,123.815,291.335,123.821,291.195z"/>
		</g>
		<g>
			<path fill="#713F3E" d="M323.504,274.292c1.98,0.044,3.914,0.305,5.776,0.987c0.477,0.175,0.948,0.383,1.39,0.632
			c2.239,1.259,3.166,3.464,2.537,5.955c-0.296,1.174-0.909,2.173-1.677,3.087c-1.716,2.039-3.837,3.589-6.077,4.991
			c-2.441,1.528-5.04,2.742-7.668,3.909c-5.725,2.542-11.63,4.575-17.603,6.437c-1.637,0.51-3.238,1.143-4.836,1.768
			c-2.189,0.856-4.214,2.041-6.065,3.468c-0.942,0.727-1.672,1.731-2.488,2.619c-0.309,0.336-0.58,0.705-0.886,1.044
			c-0.325,0.36-0.74,0.521-1.228,0.487c-0.904-0.064-1.428-0.896-1.077-1.735c0.092-0.22,0.246-0.414,0.367-0.623
			c1.948-3.33,4.912-5.483,8.285-7.166c2.819-1.406,5.78-2.453,8.778-3.389c5.797-1.81,11.455-3.977,16.996-6.457
			c2.95-1.32,5.765-2.876,8.339-4.843c1.091-0.834,2.113-1.746,2.966-2.83c0.505-0.642,0.882-1.337,0.964-2.176
			c0.1-1.013-0.256-1.78-1.119-2.321c-1.114-0.699-2.351-1.036-3.632-1.238c-3.227-0.509-6.306,0.131-9.311,1.25
			c-4.234,1.577-7.988,3.965-11.277,7.029c-2.947,2.745-5.756,5.638-8.629,8.463c-3.16,3.107-6.226,6.315-9.621,9.172
			c-1.252,1.054-2.569,2.034-3.89,3c-0.603,0.441-1.264,0.822-1.946,1.128c-0.422,0.189-0.928,0.221-1.402,0.255
			c-0.318,0.023-0.56-0.189-0.63-0.517c-0.071-0.335,0.084-0.587,0.383-0.72c3.77-1.678,6.595-4.59,9.449-7.41
			c4.164-4.115,8.191-8.37,12.255-12.586c2.846-2.952,5.898-5.643,9.455-7.722c3.162-1.848,6.538-3.111,10.159-3.681
			C321.518,274.403,322.516,274.377,323.504,274.292z"/>
			<path fill="#A34E4C" d="M277.063,300.305c0.815-0.028,2.023-0.074,3.231-0.11c1.33-0.04,2.467,0.375,3.39,1.376
			c1.128,1.223,2.314,2.394,3.433,3.625c0.429,0.472,0.774,1.031,1.104,1.582c0.607,1.011,0.755,2.097,0.483,3.257
			c-0.471,2.012-0.961,4.023-1.343,6.053c-0.432,2.294-0.785,4.604-1.114,6.916c-0.376,2.638-1.375,4.983-2.94,7.144
			c-3.184,4.398-6.906,8.289-10.894,11.95c-3.728,3.423-7.749,6.475-11.824,9.461c-0.562,0.412-1.148,0.798-1.752,1.145
			c-1.789,1.026-3.598,0.958-5.37-0.03c-1.42-0.792-2.626-1.868-3.718-3.062c-2.375-2.597-4.715-5.227-7.101-7.813
			c-1.785-1.934-3.618-3.823-5.436-5.727c-0.649-0.68-1.32-1.339-1.971-2.018c-0.26-0.271-0.512-0.554-0.735-0.855
			c-1.556-2.103-1.247-3.77,0.211-5.29c1.115-1.163,2.254-2.304,3.422-3.414c3.135-2.98,6.275-5.954,9.443-8.899
			c4.054-3.768,8.125-7.517,12.214-11.247c0.87-0.793,1.827-1.496,2.785-2.184c1.028-0.738,2.219-1.077,3.473-1.161
			c2.68-0.18,5.361-0.339,8.042-0.508C274.954,300.444,275.812,300.387,277.063,300.305z"/>
			<circle fill="#713F3E" cx="282.359" cy="306.807" r="1.874"/>
		</g>
		<g>
			<path fill="#5A4740" d="M291.105,274.164c0.352-2.524,0.724-5.046,1.049-7.573c0.392-3.049,0.785-6.099,1.103-9.155
			c0.369-3.554,0.671-7.113,0.975-10.673c0.168-1.962,0.279-3.929,0.418-5.894c0.193-2.724,0.44-5.446,0.568-8.172
			c0.192-4.092,0.25-8.19,0.461-12.281c0.187-3.618,0.487-7.232,0.772-10.845c0.223-2.828,0.47-5.655,0.761-8.477
			c0.404-3.92,0.784-7.844,1.311-11.75c0.618-4.583,1.328-9.156,2.099-13.719c0.815-4.822,1.676-9.64,2.648-14.437
			c1.222-6.034,2.574-12.046,3.884-18.065c0.072-0.329,0.065-0.591-0.117-0.892c-0.865-1.428-1.838-2.774-3.13-3.915
			c-0.76-0.672-1.466-1.396-2.186-2.105c-1.046-1.031-0.902-1.932,0.471-2.583c0.78-0.37,1.615-0.65,2.442-0.929
			c3.019-1.019,6.071-1.959,8.966-3.266c0.536-0.242,1.062-0.504,1.591-0.761c1.375-0.669,2.7-0.148,2.985,1.262
			c0.159,0.789,0.191,1.625,0.11,2.425c-0.274,2.691-0.636,5.375-0.941,8.063c-0.284,2.506-0.582,5.012-0.795,7.524
			c-0.299,3.533-0.579,7.069-0.765,10.608c-0.177,3.383-0.273,6.771-0.316,10.157c-0.116,9.059-0.277,18.119-0.244,27.178
			c0.029,7.93,0.242,15.86,0.477,23.787c0.188,6.325,0.566,12.645,1.193,18.948c0.231,2.326,0.498,4.65,0.771,6.973
			c0.135,1.152,0.009,2.269-0.559,3.299c-0.515,0.933-1.067,1.859-1.709,2.72c-1.567,2.101-3.303,4.081-5.206,5.936
			c-2.877,2.805-5.776,5.599-8.312,8.676c-1.756,2.13-3.36,4.366-5.035,6.553c-0.804,1.05-1.606,2.102-2.43,3.139
			c-0.198,0.249-0.453,0.482-0.733,0.65c-1.077,0.644-2.326,0.112-2.479-1.06c-0.057-0.439-0.009-0.89-0.009-1.335
			C291.162,274.171,291.134,274.168,291.105,274.164z"/>
			<path fill="#5A4740" d="M288.333,103.152c-0.042,3.151-0.405,6.028-0.813,8.901c-0.568,3.997-1.403,7.932-2.724,11.751
			c-0.429,1.241-0.922,2.466-1.476,3.657c-0.301,0.646-0.723,1.269-1.214,1.785c-0.864,0.907-2.242,0.56-2.576-0.581
			c-0.131-0.447-0.023-0.86,0.188-1.241c1.206-2.177,1.934-4.537,2.627-6.906c0.938-3.203,1.49-6.486,1.949-9.786
			c0.371-2.662,0.707-5.33,0.638-8.025c-0.12-4.665-0.874-9.197-3.048-13.393c-0.455-0.879-0.984-1.729-1.561-2.533
			c-3.183-4.432-8.61-6.203-13.858-4.658c-3.371,0.993-6.158,2.843-8.655,5.245c-3.739,3.597-6.279,7.933-8.03,12.777
			c-1.488,4.119-2.427,8.344-2.606,12.731c-0.046,1.126-0.262,2.251-0.235,3.372c0.044,1.795,0.215,3.587,0.357,5.378
			c0.049,0.614,0.176,1.222,0.257,1.834c0.054,0.408-0.042,0.759-0.468,0.92c-0.41,0.155-0.768-0.004-0.998-0.323
			c-0.214-0.298-0.374-0.653-0.479-1.006c-0.457-1.523-0.651-3.094-0.828-4.671c-0.271-2.42-0.034-4.833,0.084-7.243
			c0.265-5.426,1.644-10.602,3.816-15.561c2.34-5.345,5.752-9.88,10.535-13.289c3.105-2.213,6.58-3.526,10.407-3.71
			c5.157-0.248,9.465,1.582,12.812,5.545c2.426,2.873,3.823,6.26,4.758,9.856C287.994,97.064,288.286,100.215,288.333,103.152z"/>
			<path fill="#4C3B35" d="M303.278,134.918c0.314,0.37,0.513,0.612,0.721,0.846c1.106,1.244,2.216,2.484,3.32,3.731
			c0.16,0.18,0.309,0.374,0.434,0.58c0.621,1.028,0.028,2.217-1.174,2.285c-0.442,0.025-0.909-0.081-1.34-0.21
			c-1.825-0.545-3.637-1.135-5.462-1.681c-2.735-0.819-5.557-1.207-8.372-1.616c-2.523-0.367-5.051-0.708-7.577-1.056
			c-4.204-0.579-8.418-1.051-12.662-1.231c-2.414-0.102-4.824-0.325-7.239-0.407c-4.725-0.161-9.451-0.255-14.177-0.388
			c-2.98-0.084-5.961-0.155-8.939-0.294c-5.311-0.248-10.62-0.55-15.931-0.817c-3.165-0.159-6.331-0.292-9.497-0.438
			c-0.268-0.012-0.538-0.022-0.804-0.054c-0.843-0.103-1.383-0.652-1.389-1.398c-0.006-0.764,0.584-1.371,1.432-1.462
			c1.093-0.118,2.189-0.214,3.281-0.345c1.332-0.16,2.662-0.345,3.991-0.527c0.179-0.025,0.352-0.097,0.531-0.149
			c0.044-0.995,0.088-1.958,0.128-2.92c0.075-1.771,0.148-3.542,0.223-5.313c0.008-0.188,0.022-0.375,0.045-0.562
			c0.187-1.502,0.863-2.154,2.395-2.289c1.078-0.094,2.151-0.032,3.202,0.221c2.747,0.659,5.547,0.993,8.339,1.365
			c2.341,0.312,4.685,0.602,7.032,0.869c1.92,0.219,3.847,0.383,5.769,0.585c1.628,0.171,3.253,0.375,4.882,0.541
			c2.083,0.212,4.167,0.419,6.253,0.597c3.772,0.321,7.545,0.631,11.319,0.923c2.597,0.201,5.199,0.336,7.794,0.55
			c3.13,0.258,6.258,0.546,9.383,0.864c2.644,0.269,5.281,0.596,7.921,0.904c1.813,0.212,3.621,0.475,5.437,0.646
			c2.111,0.198,4.226,0.375,6.344,0.46c2.016,0.081,4.019,0.218,6.011,0.542c0.414,0.067,0.849,0.012,1.274,0.004
			c0.268-0.005,0.538-0.058,0.802-0.033c0.616,0.059,1.062,0.388,1.261,0.975c0.189,0.558,0.055,1.095-0.391,1.466
			c-0.32,0.266-0.722,0.457-1.117,0.605c-3.349,1.26-6.818,2.095-10.306,2.858C305.437,134.362,304.455,134.628,303.278,134.918z"/>
			<path fill="#8D7867" d="M286.905,278.392c-3.126-0.318-6.252-0.626-9.376-0.956c-2.59-0.274-5.178-0.575-7.766-0.862
			c-2.135-0.237-4.268-0.485-6.405-0.703c-2.084-0.213-4.171-0.396-6.256-0.589c-2.754-0.255-5.51-0.491-8.263-0.765
			c-2.618-0.261-5.235-0.541-7.849-0.848c-2.719-0.32-5.434-0.678-8.15-1.032c-2.662-0.347-5.322-0.714-7.983-1.067
			c-7.54-1-15.011-2.336-22.27-4.674c-2.684-0.865-5.341-1.818-7.863-3.086c-1.291-0.649-2.532-1.414-3.731-2.222
			c-1.984-1.336-2.948-3.254-2.783-5.645c0.113-1.63,0.321-3.26,0.591-4.872c1.408-8.4,3.539-16.645,5.431-24.94
			c1.988-8.715,4.028-17.419,5.892-26.161c1.814-8.505,3.487-17.042,5.119-25.584c0.982-5.141,1.775-10.318,2.638-15.482
			c0.473-2.833,0.932-5.669,1.364-8.509c0.379-2.495,0.661-5.005,1.078-7.493c0.497-2.964,1.083-5.914,1.649-8.867
			c0.136-0.711,0.341-1.383,0.918-1.923c0.49-0.459,1.001-0.701,1.657-0.659c1.339,0.086,2.679,0.167,4.018,0.264
			c1.901,0.137,3.801,0.298,5.702,0.429c2.17,0.149,4.341,0.278,6.511,0.409c0.536,0.032,1.074,0.041,1.611,0.054
			c4.619,0.119,9.238,0.265,13.858,0.349c7.092,0.13,14.185,0.196,21.277,0.338c2.28,0.046,4.561,0.203,6.836,0.386
			c3.21,0.258,6.418,0.557,9.622,0.894c5.205,0.548,10.409,1.116,15.472,2.547c2.39,0.675,4.623,1.732,6.856,2.782
			c1.498,0.704,1.926,1.786,1.504,3.387c-1.515,5.741-2.678,11.558-3.706,17.402c-0.753,4.283-1.484,8.571-2.165,12.866
			c-0.563,3.553-1.068,7.116-1.548,10.681c-0.551,4.098-1.084,8.199-1.556,12.306c-0.45,3.922-0.857,7.849-1.202,11.781
			c-0.504,5.753-0.937,11.512-1.399,17.269c-0.29,3.615-0.564,7.231-0.866,10.844c-0.284,3.399-0.599,6.796-0.895,10.194
			c-0.671,7.71-1.243,15.424-1.122,23.175c0.024,1.553-0.118,3.11-0.217,4.663c-0.025,0.395-0.151,0.792-0.281,1.17
			c-0.611,1.771-1.82,2.65-3.688,2.687c-0.752,0.015-1.505,0.002-2.257,0.002C286.91,278.353,286.907,278.372,286.905,278.392z"/>
			<path fill="#5A4740" d="M242.473,141.513c-0.807,2.247-1.472,4.479-1.957,6.765c-0.852,4.008-1.37,8.05-1.179,12.155
			c0.224,4.808,1.401,9.357,4.099,13.39c2.304,3.443,5.242,6.247,9.011,8.087c1.211,0.591,2.471,1.04,3.816,1.23
			c2.231,0.314,4.325-0.184,6.348-1.071c2.551-1.119,4.724-2.75,6.528-4.875c3.689-4.345,6.067-9.341,7.412-14.855
			c1.129-4.626,1.556-9.32,1.28-14.07c-0.074-1.281-0.305-2.553-0.465-3.836c-0.247-0.077-0.422-0.128-0.594-0.185
			c-1.155-0.381-2.019-1.513-2.074-2.718c-0.004-0.08-0.002-0.161,0.004-0.241c0.108-1.458,1.624-2.616,3.238-2.475
			c1.472,0.129,2.522,1.343,2.264,2.846c-0.189,1.103-0.004,2.122,0.208,3.173c0.673,3.344,0.724,6.719,0.5,10.11
			c-0.267,4.039-0.946,8.001-2.255,11.834c-1.569,4.594-3.84,8.804-7.074,12.459c-2.658,3.005-5.865,5.177-9.719,6.35
			c-3.254,0.991-6.463,0.853-9.617-0.435c-1.674-0.683-3.244-1.547-4.692-2.636c-6.088-4.58-9.583-10.682-10.678-18.189
			c-0.583-3.998-0.38-7.986,0.241-11.959c0.62-3.963,1.595-7.836,3.103-11.563c0.125-0.309,0.145-0.576,0.017-0.914
			c-0.498-1.313,0.119-2.708,1.4-3.279c1.349-0.602,2.32-0.5,3.2,0.355c0.785,0.764,1.028,1.708,0.719,2.735
			c-0.307,1.022-1.085,1.565-2.127,1.725C243.141,141.473,242.846,141.481,242.473,141.513z"/>
		</g>
	</g>
</svg>
